# xmcd CD database file
#
# Track frame offsets:
#	150
#	23885
#	51887
#	76405
#	103542
#	126315
#	156635
#	183787
#	210697
#	230982
#
# Disc length: 3344 seconds
#
# Revision: 12
# Processed by: cddbd v1.5.2PL0 Copyright (c) Steve Scherf et al.
# Submitted via: CDex 1.70beta3
#
DISCID=8a0d0e0a
DTITLE=中谷美紀 - 食物連鎖
DYEAR=1996
DGENRE=JPop
TTITLE0=MIND CIRCUS
TTITLE1=STRANGE PARADISE (Paradise Mix)
TTITLE2=逢いびきの森で
TTITLE3=汚れた脚 The Silence of Inocence
TTITLE4=my best of love
TTITLE5=WHERE TEH RIVER FLOWS
TTITLE6=TATTOO
TTITLE7=色彩の中へ
TTITLE8=LUNAR FEVER
TTITLE9=sorriso escuro
EXTD=YEAR: 1996
EXTT0=
EXTT1=
EXTT2=
EXTT3=
EXTT4=
EXTT5=
EXTT6=
EXTT7=
EXTT8=
EXTT9=
PLAYORDER=
